#!OML:ASF I:\Actors\actors\Patient Classification 1\Patient 1\Session 1\Subject1.ASF
:FULLY-SPECIFIED
:DEGREES
547
root 0.750115 17.4891 9.16105 7.92326 -0.8382 -8.47046
lowerback -0.955514 1.56955 6.10533
upperback -8.0673 2.4876 2.49523
thorax -7.80467 0.917122 -0.920945
lowerneck -4.83244 4.89611 7.416
upperneck 44.2133 2.67932 8.43513
head 17.1015 3.52285 2.96052
rclavicle 1.20016e-014 4.32357e-015
rhumerus 20.171 42.8348 -63.2522
rradius 135.103
rwrist 9.94175
rhand -22.7497 -53.1992
rfingers 7.12502
rthumb 3.68485 -803.147
lclavicle 1.20016e-014 4.32357e-015
lhumerus 25.5675 -22.0191 64.1441
lradius 149.229
lwrist 19.0874
lhand -21.5817 2.55564
lfingers 7.12502
lthumb 4.81264 32.481
rfemur -3.59688 22.5286 25.067
rtibia 5.06453
rfoot -12.7531 -26.3211
rtoes 1.35654
lfemur 6.42252 -42.7947 -12.6695
ltibia -4.12255
lfoot -18.9959 50.0974
ltoes 6.29551
548
root 0.752251 17.4876 9.1652 7.86005 -0.433329 -8.40566
lowerback -0.882687 1.3505 6.10817
upperback -8.1125 2.19684 2.39775
thorax -7.90989 0.765745 -1.01159
lowerneck -5.5903 4.26599 6.46284
upperneck 44.8645 1.8887 8.137
head 17.6558 3.00775 2.95726
rclavicle 2.07481e-015 3.88624e-014
rhumerus 20.1294 42.2515 -63.0478
rradius 135.858
rwrist 10.7788
rhand -22.4803 -53.781
rfingers 7.12502
rthumb 3.94494 -803.724
lclavicle 2.07481e-015 3.88624e-014
lhumerus 24.4501 -22.9791 65.1309
lradius 149
lwrist 19.5338
lhand -21.853 2.85223
lfingers 7.12502
lthumb 4.55068 32.7833
rfemur -3.40304 22.4568 25.0703
rtibia 4.94003
rfoot -12.86 -26.6515
rtoes 1.66858
lfemur 6.45996 -43.0557 -12.7578
ltibia -4.19835
lfoot -18.5448 50.0546
ltoes 5.71213
549
root 0.753303 17.4864 9.16946 7.80851 0.0380967 -8.44442
lowerback -0.8482 1.0942 6.45807
upperback -8.24656 1.86547 2.22556
thorax -8.08756 0.563585 -1.36888
lowerneck -5.47202 3.32258 5.49371
upperneck 44.8119 0.924797 7.39347
head 17.5718 2.33432 2.61586
rclavicle -5.39203e-015 3.18055e-015
rhumerus 20.021 41.2696 -63.1301
rradius 137.062
rwrist 10.48
rhand -21.6834 -53.5153
rfingers 7.12502
rthumb 4.71444 -803.443
lclavicle -5.39203e-015 3.18055e-015
lhumerus 22.8808 -24.0527 66.1363
lradius 148.782
lwrist 19.7523
lhand -21.88 2.6308
lfingers 7.12502
lthumb 4.52464 32.5625
rfemur -3.22746 22.4379 25.2065
rtibia 4.85305
rfoot -13.023 -27.0437
rtoes 1.92965
lfemur 6.48032 -43.3891 -12.6992
ltibia -4.27596
lfoot -18.325 49.9741
ltoes 5.44131
550
root 0.753155 17.4856 9.17317 7.79002 0.496813 -8.49543
lowerback -0.792541 0.875962 6.29964
upperback -8.03261 1.55522 2.16417
thorax -7.90566 0.427395 -1.3296
lowerneck -6.70788 2.12552 4.84789
upperneck 44.8966 -0.420722 6.08997
head 17.9486 1.49802 1.94032
rclavicle 1.50579e-014 -1.5704e-014
rhumerus 20.966 39.5765 -62.4975
rradius 138.184
rwrist 10.8921
rhand -21.0405 -54.9486
rfingers 7.12502
rthumb 5.33522 -804.861
lclavicle 1.50579e-014 -1.5704e-014
lhumerus 22.1989 -24.7253 66.9572
lradius 148.293
lwrist 20.3332
lhand -21.6182 1.75728
lfingers 7.12502
lthumb 4.77743 31.6834
rfemur -3.15373 22.3756 25.324
rtibia 4.85571
rfoot -13.2253 -27.3455
rtoes 2.11256
lfemur 6.30584 -43.4261 -12.4639
ltibia -4.3047
lfoot -17.8519 49.6419
ltoes 4.9466
551
root 0.753894 17.4842 9.1769 7.7598 0.960986 -8.57399
lowerback -0.867486 0.400238 6.08465
upperback -8.14612 0.923769 2.40379
thorax -8.03485 0.134927 -0.919369
lowerneck -6.58255 1.00071 3.20613
upperneck 44.9127 -1.39288 5.05488
head 17.8903 0.661945 1.58161
rclavicle 2.35311e-014 -2.54444e-014
rhumerus 21.5016 39.126 -62.2952
rradius 139.252
rwrist 12.0602
rhand -20.5463 -56.8353
rfingers 7.12502
rthumb 5.81237 -806.736
lclavicle 2.35311e-014 -2.54444e-014
lhumerus 20.1778 -25.113 68.2245
lradius 147.65
lwrist 20.8553
lhand -21.6123 1.42694
lfingers 7.12502
lthumb 4.78317 31.3529
rfemur -3.09775 22.2131 25.4576
rtibia 4.8879
rfoot -13.4387 -27.5696
rtoes 2.43743
lfemur 6.10459 -43.4041 -12.176
ltibia -4.31347
lfoot -17.1865 49.252
ltoes 4.13048
552
root 0.755823 17.4829 9.18099 7.72125 1.4521 -8.68699
lowerback -0.878134 0.0221998 5.98819
upperback -8.22216 0.424953 2.54307
thorax -8.14379 -0.102486 -0.687541
lowerneck -6.45569 -0.220819 1.65132
upperneck 44.7016 -2.61023 4.20538
head 17.7276 -0.239555 1.25512
rclavicle 4.52235e-015 -1.8487e-014
rhumerus 22.0624 38.4043 -62.0142
rradius 140.205
rwrist 13.2356
rhand -20.0717 -58.3939
rfingers 7.12502
rthumb 6.27064 -808.281
lclavicle 4.52235e-015 -1.8487e-014
lhumerus 18.5692 -25.8335 69.329
lradius 146.804
lwrist 20.9805
lhand -22.5575 1.49304
lfingers 7.12502
lthumb 3.87044 31.4376
rfemur -3.0161 22.0259 25.6334
rtibia 4.90368
rfoot -13.678 -27.8235
rtoes 2.89377
lfemur 6.02711 -43.6659 -11.9431
ltibia -4.37443
lfoot -16.7826 49.0738
ltoes 3.58701
553
root 0.758643 17.4826 9.18498 7.70466 1.88394 -8.79516
lowerback -0.811045 -0.128185 6.03303
upperback -7.91258 0.206664 2.44487
thorax -7.85509 -0.206267 -0.807546
lowerneck -7.84677 -1.51398 0.600475
upperneck 44.8794 -4.2357 3.59535
head 18.2538 -1.15845 0.889083
rclavicle -3.67752e-015 -2.04748e-014
rhumerus 23.2886 36.4786 -61.1858
rradius 141.045
rwrist 13.6601
rhand -19.4929 -59.7134
rfingers 7.12502
rthumb 6.82933 -809.583
lclavicle -3.67752e-015 -2.04748e-014
lhumerus 18.5994 -26.7559 69.6659
lradius 145.808
lwrist 20.8127
lhand -23.7981 0.6863
lfingers 7.12502
lthumb 2.67231 30.6493
rfemur -2.96102 21.8613 25.7881
rtibia 4.91063
rfoot -13.8305 -28.0795
rtoes 3.02281
lfemur 5.98007 -44.0118 -11.7444
ltibia -4.4637
lfoot -16.6368 49.0181
ltoes 3.43452
554
root 0.7636 17.4836 9.18789 7.68193 2.14546 -8.86604
lowerback -0.882068 -0.385284 5.91586
upperback -7.93565 -0.140628 2.55755
thorax -7.85749 -0.365886 -0.602861
lowerneck -7.58481 -2.41088 -0.38067
upperneck 44.757 -5.07556 2.79107
head 18.1182 -1.79514 0.541306
rclavicle 7.03201e-015 2.98177e-015
rhumerus 23.8464 35.9551 -60.8459
rradius 141.544
rwrist 14.1831
rhand -19.0584 -60.3438
rfingers 7.12502
rthumb 7.24882 -629.8
lclavicle 7.03201e-015 2.98177e-015
lhumerus 17.6329 -27.4748 70.244
lradius 145.165
lwrist 20.4392
lhand -24.6306 -0.268559
lfingers 7.12502
lthumb 1.86838 29.703
rfemur -2.92035 21.7891 25.8815
rtibia 4.91327
rfoot -13.8747 -28.2691
rtoes 3.05634
lfemur 5.97408 -44.2892 -11.6639
ltibia -4.48634
lfoot -16.6196 49.0281
ltoes 3.39896
555
root 0.769276 17.4848 9.19018 7.63583 2.23954 -8.89129
lowerback -0.948943 -0.713102 5.63116
upperback -8.20799 -0.563348 2.85429
thorax -8.13168 -0.552231 -0.100204
lowerneck -6.46013 -2.84589 -1.58426
upperneck 44.6527 -5.24071 2.24686
head 17.7731 -2.17066 0.492015
rclavicle 1.58034e-014 -2.00773e-014
rhumerus 23.9854 36.2553 -60.6022
rradius 141.847
rwrist 14.6003
rhand -18.8611 -60.6437
rfingers 7.12502
rthumb 7.43927 -629.507
lclavicle 1.58034e-014 -2.00773e-014
lhumerus 15.9293 -27.8493 71.031
lradius 144.922
lwrist 19.9905
lhand -25.2272 -0.631326
lfingers 7.12502
lthumb 1.29211 29.3445
rfemur -2.86234 21.832 25.9231
rtibia 4.91765
rfoot -13.9137 -28.4012
rtoes 3.16493
lfemur 6.08531 -44.5546 -11.7549
ltibia -4.47697
lfoot -16.6155 49.1775
ltoes 3.18136
556
root 0.77351 17.4851 9.19181 7.59346 2.19488 -8.92639
lowerback -0.888494 -0.640721 5.71468
upperback -8.12259 -0.470905 2.72923
thorax -8.07163 -0.515358 -0.285509
lowerneck -6.39716 -3.23047 -1.51963
upperneck 44.2863 -5.64757 1.78088
head 17.5187 -2.39685 0.199069
rclavicle 1.39149e-014 -2.42517e-014
rhumerus 24.1919 35.5403 -60.1813
rradius 142.013
rwrist 14.9812
rhand -18.6478 -60.9731
rfingers 7.12502
rthumb 7.64515 -629.185
lclavicle 1.39149e-014 -2.42517e-014
lhumerus 15.9684 -28.5325 70.9634
lradius 144.713
lwrist 19.7091
lhand -25.8427 -1.00567
lfingers 7.12502
lthumb 0.697685 28.9729
rfemur -2.82173 21.8535 25.968
rtibia 4.93827
rfoot -13.93 -28.3971
rtoes 3.16921
lfemur 6.27193 -44.7323 -11.8793
ltibia -4.5038
lfoot -16.657 49.3906
ltoes 3.0212
557
root 0.777238 17.4857 9.19214 7.59403 2.01549 -8.91702
lowerback -0.845405 -0.723814 5.53659
upperback -8.15129 -0.573325 2.90645
thorax -8.12735 -0.547858 0.00814518
lowerneck -6.38211 -3.09145 -1.93944
upperneck 44.3706 -5.34403 1.80161
head 17.5744 -2.34043 0.332162
rclavicle -2.85753e-015 2.50469e-014
rhumerus 24.5755 35.7593 -59.671
rradius 142.092
rwrist 14.8181
rhand -18.5177 -61.1775
rfingers 7.12502
rthumb 7.77063 -628.985
lclavicle -2.85753e-015 2.50469e-014
lhumerus 15.5054 -28.494 71.0391
lradius 144.689
lwrist 19.2234
lhand -26.5993 -1.56906
lfingers 7.12502
lthumb -0.0330937 28.4107
rfemur -2.85125 21.8102 25.9265
rtibia 4.97708
rfoot -13.89 -28.2127
rtoes 3.08414
lfemur 6.40958 -44.7232 -12.0243
ltibia -4.51145
lfoot -16.9248 49.5218
ltoes 3.45437
558
root 0.779802 17.4865 9.19238 7.63301 1.70776 -8.8766
lowerback -0.841538 -0.648668 5.43634
upperback -8.14953 -0.473837 2.94666
thorax -8.12055 -0.490202 0.0997134
lowerneck -6.28094 -2.83678 -1.6172
upperneck 44.2169 -4.92522 1.61752
head 17.419 -2.13843 0.2591
rclavicle 6.83322e-015 -2.5345e-014
rhumerus 24.6936 35.8481 -59.4208
rradius 142.047
rwrist 14.4572
rhand -18.3205 -61.2638
rfingers 7.12502
rthumb 7.96098 -628.906
lclavicle 6.83322e-015 -2.5345e-014
lhumerus 15.4222 -28.4309 70.8893
lradius 144.819
lwrist 19.1265
lhand -27.1547 -1.91151
lfingers 7.12502
lthumb -0.569483 28.0675
rfemur -2.92854 21.8526 25.8322
rtibia 5.009
rfoot -13.8065 -27.9804
rtoes 2.86686
lfemur 6.51357 -44.6108 -12.1771
ltibia -4.51464
lfoot -17.3172 49.6536
ltoes 4.18158
559
root 0.780991 17.4865 9.19319 7.68994 1.31096 -8.85186
lowerback -0.848254 -0.494051 5.40781
upperback -8.14118 -0.269894 2.92756
thorax -8.09842 -0.388077 0.0820171
lowerneck -6.86432 -2.55906 -2.06815
upperneck 44.9224 -4.69591 2.31477
head 18.0483 -2.01198 0.694434
rclavicle -8.18744e-015 -1.49089e-014
rhumerus 24.5942 35.9136 -59.3962
rradius 141.905
rwrist 14.1682
rhand -17.8414 -61.1546
rfingers 7.12502
rthumb 8.42336 -629.033
lclavicle -8.18744e-015 -1.49089e-014
lhumerus 15.5796 -28.1846 70.5772
lradius 145.092
lwrist 19.4046
lhand -27.2699 -2.02424
lfingers 7.12502
lthumb -0.680742 27.9544
rfemur -3.01607 21.9752 25.7501
rtibia 5.014
rfoot -13.6843 -27.7314
rtoes 2.7055
lfemur 6.63685 -44.5216 -12.3221
ltibia -4.52192
lfoot -17.7697 49.8871
ltoes 4.78593
